<mxfile host="app.diagrams.net" agent="Mozilla/5.0 (X11; Linux x86_64; rv:109.0) Gecko/20100101 Firefox/115.0" version="24.7.12">
  <diagram name="Page-1" id="uqoz3_uKeKNAAwRPlg_T">
    <mxGraphModel dx="1039" dy="554" grid="1" gridSize="10" guides="1" tooltips="1" connect="1" arrows="1" fold="1" page="1" pageScale="1" pageWidth="850" pageHeight="1100" math="0" shadow="0">
      <root>
        <mxCell id="0" />
        <mxCell id="1" parent="0" />
        <mxCell id="Wbrv9DUAgdjDScaYC-ih-1" value="Internaute" style="shape=folder;fontStyle=1;tabWidth=80;tabHeight=30;tabPosition=left;html=1;boundedLbl=1;whiteSpace=wrap;fillColor=#dae8fc;strokeColor=#6c8ebf;" parent="1" vertex="1">
          <mxGeometry x="60" y="70" width="150" height="80" as="geometry" />
        </mxCell>
        <mxCell id="Wbrv9DUAgdjDScaYC-ih-10" style="edgeStyle=orthogonalEdgeStyle;rounded=0;orthogonalLoop=1;jettySize=auto;html=1;" parent="1" source="Wbrv9DUAgdjDScaYC-ih-2" target="Wbrv9DUAgdjDScaYC-ih-5" edge="1">
          <mxGeometry relative="1" as="geometry" />
        </mxCell>
        <mxCell id="Wbrv9DUAgdjDScaYC-ih-2" value="&lt;div&gt;Admin/Super_Admin&lt;/div&gt;" style="shape=folder;fontStyle=1;tabWidth=80;tabHeight=30;tabPosition=left;html=1;boundedLbl=1;whiteSpace=wrap;fillColor=#e1d5e7;strokeColor=#9673a6;" parent="1" vertex="1">
          <mxGeometry x="60" y="420" width="150" height="80" as="geometry" />
        </mxCell>
        <mxCell id="Wbrv9DUAgdjDScaYC-ih-3" value="BusinessOwner" style="shape=folder;fontStyle=1;tabWidth=80;tabHeight=30;tabPosition=left;html=1;boundedLbl=1;whiteSpace=wrap;fillColor=#ffe6cc;strokeColor=#d79b00;" parent="1" vertex="1">
          <mxGeometry x="60" y="310" width="150" height="80" as="geometry" />
        </mxCell>
        <mxCell id="Wbrv9DUAgdjDScaYC-ih-4" value="Client" style="shape=folder;fontStyle=1;tabWidth=80;tabHeight=30;tabPosition=left;html=1;boundedLbl=1;whiteSpace=wrap;fillColor=#d5e8d4;strokeColor=#82b366;" parent="1" vertex="1">
          <mxGeometry x="60" y="200" width="150" height="80" as="geometry" />
        </mxCell>
        <mxCell id="Wbrv9DUAgdjDScaYC-ih-5" value="Authentication" style="shape=folder;fontStyle=1;tabWidth=80;tabHeight=30;tabPosition=left;html=1;boundedLbl=1;whiteSpace=wrap;fillColor=#cdeb8b;strokeColor=#36393d;" parent="1" vertex="1">
          <mxGeometry x="390" y="420" width="150" height="80" as="geometry" />
        </mxCell>
        <mxCell id="Wbrv9DUAgdjDScaYC-ih-8" style="edgeStyle=orthogonalEdgeStyle;rounded=0;orthogonalLoop=1;jettySize=auto;html=1;entryX=0.4;entryY=0;entryDx=0;entryDy=0;entryPerimeter=0;" parent="1" source="Wbrv9DUAgdjDScaYC-ih-4" target="Wbrv9DUAgdjDScaYC-ih-5" edge="1">
          <mxGeometry relative="1" as="geometry" />
        </mxCell>
        <mxCell id="Wbrv9DUAgdjDScaYC-ih-9" style="edgeStyle=orthogonalEdgeStyle;rounded=0;orthogonalLoop=1;jettySize=auto;html=1;entryX=0.133;entryY=0.025;entryDx=0;entryDy=0;entryPerimeter=0;" parent="1" source="Wbrv9DUAgdjDScaYC-ih-3" target="Wbrv9DUAgdjDScaYC-ih-5" edge="1">
          <mxGeometry relative="1" as="geometry" />
        </mxCell>
        <mxCell id="Wbrv9DUAgdjDScaYC-ih-11" value="&lt;div style=&quot;font-size: 14px;&quot;&gt;&lt;font style=&quot;font-size: 14px;&quot;&gt;&lt;b&gt;Dependance entre paquetage qui reflete l&#39;inclusion des&amp;nbsp;&lt;/b&gt;&lt;/font&gt;&lt;/div&gt;&lt;div style=&quot;font-size: 14px;&quot;&gt;&lt;font style=&quot;font-size: 14px;&quot;&gt;&lt;b&gt;cas d&#39;utilisation&lt;/b&gt;&lt;/font&gt;&lt;/div&gt;" style="text;html=1;align=center;verticalAlign=middle;resizable=0;points=[];autosize=1;strokeColor=none;fillColor=#EDEDED;" parent="1" vertex="1">
          <mxGeometry x="280" y="150" width="390" height="50" as="geometry" />
        </mxCell>
        <mxCell id="Wbrv9DUAgdjDScaYC-ih-12" value="" style="endArrow=classic;html=1;rounded=0;entryX=0.456;entryY=0.94;entryDx=0;entryDy=0;entryPerimeter=0;dashed=1;" parent="1" target="Wbrv9DUAgdjDScaYC-ih-11" edge="1">
          <mxGeometry width="50" height="50" relative="1" as="geometry">
            <mxPoint x="350" y="240" as="sourcePoint" />
            <mxPoint x="400" y="190" as="targetPoint" />
          </mxGeometry>
        </mxCell>
      </root>
    </mxGraphModel>
  </diagram>
</mxfile>
